<svg width="36" height="32" viewBox="0 0 36 32" fill="none" xmlns="http://www.w3.org/2000/svg">
<path d="M13.5161 23.9098C11.0695 23.5649 8.98842 22.9056 7.27295 21.9318C5.55748 20.958 4.24979 19.7307 3.34987 18.2497C2.44995 16.7688 1.99999 15.1154 1.99999 13.2896C1.99999 11.0784 2.61869 9.13082 3.85607 7.44702C5.09346 5.74292 6.83705 4.41414 9.08684 3.46066C11.3648 2.48689 14.0223 2.00001 17.0595 2.00001C20.0686 2.00001 22.6559 2.4666 24.8213 3.3998C26.9868 4.33299 28.66 5.6212 29.8412 7.26443C31.0223 8.88738 31.6129 10.7538 31.6129 12.8636C31.6129 14.7503 31.1348 16.4645 30.1787 18.0063C29.2506 19.5481 27.9007 20.8363 26.129 21.8709C24.3573 22.8853 22.22 23.5345 19.7171 23.8185V23.9098C21.5451 25.1067 23.1199 26.0297 24.4417 26.6789C25.7916 27.3484 27.0289 27.8048 28.1538 28.0483C29.3069 28.2917 30.5161 28.4134 31.7816 28.4134C32.4003 28.4134 32.9909 28.383 33.5533 28.3221C34.1439 28.2613 34.7485 28.1396 35.3672 27.957C35.5922 28.1801 35.8031 28.454 36 28.7786C34.9595 29.4075 33.7643 29.9349 32.4144 30.361C31.0926 30.787 29.7006 31 28.2382 31C26.7196 31 25.426 30.787 24.3573 30.361C23.3168 29.9349 22.4028 29.3872 21.6154 28.7177C20.8561 28.0483 20.1249 27.3687 19.4218 26.6789C19.1406 26.3949 18.8734 26.1109 18.6203 25.8269C18.3672 25.5631 18.086 25.3096 17.7767 25.0661C17.3548 24.6807 16.9611 24.4271 16.5955 24.3054C16.2299 24.2039 15.8081 24.1329 15.33 24.0923C14.8801 24.0721 14.2754 24.0112 13.5161 23.9098ZM26.3821 13.1679C26.3821 11.9304 26.2134 10.7233 25.8759 9.5467C25.5385 8.37007 24.9901 7.30501 24.2308 6.35153C23.4996 5.39805 22.5294 4.64744 21.3201 4.09969C20.1108 3.53166 18.6344 3.24765 16.8908 3.24765C15.1191 3.24765 13.6146 3.53166 12.3772 4.09969C11.1679 4.64744 10.1836 5.39805 9.42431 6.35153C8.69313 7.28472 8.14474 8.32949 7.77915 9.48584C7.44168 10.6422 7.27295 11.8087 7.27295 12.9853C7.27295 14.1619 7.44168 15.3386 7.77915 16.5152C8.14474 17.6919 8.70719 18.7569 9.4665 19.7104C10.2258 20.6639 11.2241 21.4348 12.4615 22.0231C13.727 22.5911 15.2457 22.8751 17.0174 22.8751C18.761 22.8751 20.2233 22.6013 21.4045 22.0535C22.6137 21.5058 23.5839 20.7755 24.3151 19.8625C25.0463 18.9294 25.5666 17.8846 25.8759 16.7282C26.2134 15.5719 26.3821 14.3851 26.3821 13.1679Z" fill="#6161CB"/>
<ellipse cx="19.5" cy="10" rx="1.5" ry="3" fill="#6161CB"/>
<ellipse cx="13.5" cy="10" rx="1.5" ry="3" fill="#6161CB"/>
<path d="M12 17V17C14.5637 18.8159 17.9688 18.9085 20.6274 17.2346L21 17" stroke="#6161CB" stroke-width="2"/>
</svg>
